<svg width="560" height="560" viewBox="0 0 560 560" fill="none" xmlns="http://www.w3.org/2000/svg">
  <defs>
    <linearGradient id="paper" x1="93" y1="67" x2="388" y2="484" gradientUnits="userSpaceOnUse">
      <stop stop-color="#F8F5EA"/>
      <stop offset="1" stop-color="#DDE9DE"/>
    </linearGradient>
    <linearGradient id="ring" x1="85" y1="74" x2="458" y2="463" gradientUnits="userSpaceOnUse">
      <stop stop-color="#C6A15B"/>
      <stop offset="1" stop-color="#75A88A"/>
    </linearGradient>
    <filter id="shadow" x="33" y="40" width="454" height="492" filterUnits="userSpaceOnUse" color-interpolation-filters="sRGB">
      <feDropShadow dx="0" dy="22" stdDeviation="20" flood-color="#041B14" flood-opacity=".28"/>
    </filter>
  </defs>
  <circle cx="291" cy="275" r="202" stroke="url(#ring)" stroke-opacity=".4" stroke-width="1" stroke-dasharray="3 9"/>
  <circle cx="291" cy="275" r="153" stroke="#C6A15B" stroke-opacity=".22" stroke-width="1"/>
  <g filter="url(#shadow)" transform="rotate(-8 260 272)">
    <rect x="93" y="65" width="310" height="402" rx="5" fill="url(#paper)"/>
    <path d="M319 65L403 149H319V65Z" fill="#C6A15B" fill-opacity=".35"/>
    <path d="M319 65V149H403" stroke="#C6A15B" stroke-opacity=".6"/>
    <rect x="128" y="112" width="67" height="67" rx="33.5" fill="#0D3B30"/>
    <path d="M161.5 127L174.5 134.5V148.5C174.5 160 167 168 161.5 170C156 168 148.5 160 148.5 148.5V134.5L161.5 127Z" stroke="#C6A15B" stroke-width="2"/>
    <path d="M157 149L160 152L167 144" stroke="#F8F5EA" stroke-width="2" stroke-linecap="round" stroke-linejoin="round"/>
    <rect x="221" y="123" width="105" height="9" rx="4.5" fill="#0D3B30" fill-opacity=".83"/>
    <rect x="221" y="142" width="71" height="6" rx="3" fill="#9EB4A3"/>
    <rect x="128" y="220" width="240" height="1" fill="#B8CDBA"/>
    <rect x="128" y="249" width="105" height="8" rx="4" fill="#0D3B30" fill-opacity=".75"/>
    <rect x="128" y="269" width="184" height="6" rx="3" fill="#9EB4A3"/>
    <rect x="128" y="285" width="145" height="6" rx="3" fill="#C3D2C4"/>
    <rect x="128" y="326" width="240" height="76" rx="3" fill="#FFFFFF" fill-opacity=".65" stroke="#B8CDBA"/>
    <path d="M150 377L178 359L204 367L232 340L263 355L290 331L322 345L346 327" stroke="#0D3B30" stroke-width="3" stroke-linecap="round" stroke-linejoin="round"/>
    <circle cx="346" cy="327" r="5" fill="#C6A15B"/>
  </g>
  <g>
    <circle cx="456" cy="147" r="21" fill="#C6A15B" fill-opacity=".13" stroke="#C6A15B" stroke-opacity=".7"/>
    <path d="M447 147H465M456 138V156" stroke="#C6A15B" stroke-width="1.5"/>
    <circle cx="95" cy="395" r="5" fill="#8CC5A1"/>
    <circle cx="454" cy="371" r="4" fill="#C6A15B"/>
  </g>
</svg>
